<svg xmlns="http://www.w3.org/2000/svg" xmlns:xlink="http://www.w3.org/1999/xlink" width="500" zoomAndPan="magnify" viewBox="0 0 375 374.999991" height="500" preserveAspectRatio="xMidYMid meet" version="1.0"><defs><g/></defs><g fill="#00a3ff" fill-opacity="1"><g transform="translate(38.568153, 216.323254)"><g><path d="M 30.296875 0 L 4.4375 0 L 4.4375 -53.703125 L 30.296875 -53.703125 L 30.296875 -42.859375 L 17.21875 -42.859375 L 17.21875 -33.171875 L 29.34375 -33.171875 L 29.34375 -22.328125 L 17.21875 -22.328125 L 17.21875 -10.984375 L 30.296875 -10.984375 Z M 30.296875 0 "/></g></g></g><g fill="#00a3ff" fill-opacity="1"><g transform="translate(66.464736, 216.323254)"><g><path d="M 17.21875 0 L 4.4375 0 L 4.4375 -53.703125 L 30.15625 -53.703125 L 30.15625 -42.859375 L 17.21875 -42.859375 L 17.21875 -31.359375 L 29.203125 -31.359375 L 29.203125 -20.53125 L 17.21875 -20.53125 Z M 17.21875 0 "/></g></g></g><g fill="#00a3ff" fill-opacity="1"><g transform="translate(93.847119, 216.323254)"><g><path d="M 40.109375 -53.703125 L 40.109375 -18.21875 C 40.109375 -14.082031 39.410156 -10.601562 38.015625 -7.78125 C 36.617188 -4.96875 34.570312 -2.84375 31.875 -1.40625 C 29.1875 0.0195312 25.882812 0.734375 21.96875 0.734375 C 16.257812 0.734375 11.875 -0.804688 8.8125 -3.890625 C 5.75 -6.972656 4.21875 -11.640625 4.21875 -17.890625 L 4.21875 -53.703125 L 17 -53.703125 L 17 -18.515625 C 17 -15.578125 17.425781 -13.5 18.28125 -12.28125 C 19.144531 -11.070312 20.421875 -10.46875 22.109375 -10.46875 C 23.304688 -10.46875 24.285156 -10.722656 25.046875 -11.234375 C 25.804688 -11.753906 26.367188 -12.609375 26.734375 -13.796875 C 27.097656 -14.984375 27.28125 -16.578125 27.28125 -18.578125 L 27.28125 -53.703125 Z M 40.109375 -53.703125 "/></g></g></g><g fill="#ff3131" fill-opacity="1"><g transform="translate(138.082803, 216.323254)"><g><path d="M 41.359375 0 L 28.578125 0 L 28.578125 -22.40625 L 17.21875 -22.40625 L 17.21875 0 L 4.4375 0 L 4.4375 -53.703125 L 17.21875 -53.703125 L 17.21875 -33.390625 L 28.578125 -33.390625 L 28.578125 -53.703125 L 41.359375 -53.703125 Z M 41.359375 0 "/></g></g></g><g fill="#ff3131" fill-opacity="1"><g transform="translate(178.467128, 216.323254)"><g><path d="M 30.296875 0 L 4.4375 0 L 4.4375 -53.703125 L 30.296875 -53.703125 L 30.296875 -42.859375 L 17.21875 -42.859375 L 17.21875 -33.171875 L 29.34375 -33.171875 L 29.34375 -22.328125 L 17.21875 -22.328125 L 17.21875 -10.984375 L 30.296875 -10.984375 Z M 30.296875 0 "/></g></g></g><g fill="#ff3131" fill-opacity="1"><g transform="translate(206.363711, 216.323254)"><g><path d="M 29.5 0 L 27.46875 -10.46875 L 15.859375 -10.46875 L 13.84375 0 L 0 0 L 13.078125 -53.703125 L 29.9375 -53.703125 L 43.1875 0 Z M 25.484375 -21.453125 L 23.328125 -33.453125 C 23.078125 -34.804688 22.847656 -36.117188 22.640625 -37.390625 C 22.429688 -38.660156 22.25 -39.875 22.09375 -41.03125 C 21.9375 -42.195312 21.796875 -43.285156 21.671875 -44.296875 C 21.566406 -43.335938 21.4375 -42.28125 21.28125 -41.125 C 21.125 -39.976562 20.9375 -38.773438 20.71875 -37.515625 C 20.5 -36.253906 20.265625 -34.953125 20.015625 -33.609375 L 17.734375 -21.453125 Z M 25.484375 -21.453125 "/></g></g></g><g fill="#ff3131" fill-opacity="1"><g transform="translate(244.140298, 216.323254)"><g><path d="M 4.4375 0 L 4.4375 -53.703125 L 17.21875 -53.703125 L 17.21875 -10.984375 L 31.21875 -10.984375 L 31.21875 0 Z M 4.4375 0 "/></g></g></g><g fill="#ff3131" fill-opacity="1"><g transform="translate(270.935017, 216.323254)"><g><path d="M 23.6875 0 L 10.984375 0 L 10.984375 -42.640625 L 1.28125 -42.640625 L 1.28125 -53.703125 L 33.3125 -53.703125 L 33.3125 -42.640625 L 23.6875 -42.640625 Z M 23.6875 0 "/></g></g></g><g fill="#ff3131" fill-opacity="1"><g transform="translate(300.117089, 216.323254)"><g><path d="M 41.359375 0 L 28.578125 0 L 28.578125 -22.40625 L 17.21875 -22.40625 L 17.21875 0 L 4.4375 0 L 4.4375 -53.703125 L 17.21875 -53.703125 L 17.21875 -33.390625 L 28.578125 -33.390625 L 28.578125 -53.703125 L 41.359375 -53.703125 Z M 41.359375 0 "/></g></g></g></svg>